<mxfile host="app.diagrams.net" modified="2023-12-06T18:21:00.541Z" agent="Mozilla/5.0 (Windows NT 10.0; Win64; x64) AppleWebKit/537.36 (KHTML, like Gecko) Chrome/119.0.0.0 Safari/537.36" etag="qFv2h8LHo8eK1b1GaoWV" version="22.1.5" type="github">
  <diagram name="Page-1" id="Pe6wvTVroKXz1nydE84b">
    <mxGraphModel dx="824" dy="870" grid="1" gridSize="10" guides="1" tooltips="1" connect="1" arrows="1" fold="1" page="1" pageScale="1" pageWidth="850" pageHeight="1100" math="0" shadow="0">
      <root>
        <mxCell id="0" />
        <mxCell id="1" parent="0" />
        <mxCell id="ro7r4kzSWEUVGJ4_JKQd-2" value="&lt;font style=&quot;font-size: 14px;&quot;&gt;&lt;b&gt;Warning&lt;br&gt;&lt;/b&gt;&lt;/font&gt;" style="ellipse;whiteSpace=wrap;html=1;aspect=fixed;strokeWidth=4;fillColor=#fff2cc;strokeColor=#666666;" parent="1" vertex="1">
          <mxGeometry x="1460" y="190" width="100" height="100" as="geometry" />
        </mxCell>
        <mxCell id="ro7r4kzSWEUVGJ4_JKQd-3" value="&lt;font style=&quot;font-size: 14px;&quot;&gt;&lt;b&gt;Unlocking&lt;/b&gt;&lt;/font&gt;" style="ellipse;whiteSpace=wrap;html=1;aspect=fixed;strokeWidth=4;fillColor=#fff2cc;strokeColor=#666666;" parent="1" vertex="1">
          <mxGeometry x="1960" y="390" width="100" height="100" as="geometry" />
        </mxCell>
        <mxCell id="ro7r4kzSWEUVGJ4_JKQd-4" value="&lt;font style=&quot;font-size: 14px;&quot;&gt;&lt;b&gt;Verifying&lt;/b&gt;&lt;/font&gt;" style="ellipse;whiteSpace=wrap;html=1;aspect=fixed;strokeWidth=4;fillColor=#fff2cc;strokeColor=#666666;" parent="1" vertex="1">
          <mxGeometry x="1673.5" y="390" width="100" height="100" as="geometry" />
        </mxCell>
        <mxCell id="ro7r4kzSWEUVGJ4_JKQd-5" value="&lt;font style=&quot;font-size: 14px;&quot;&gt;&lt;b&gt;Stopped&lt;/b&gt;&lt;/font&gt;" style="ellipse;whiteSpace=wrap;html=1;aspect=fixed;strokeWidth=4;fillColor=#fff2cc;strokeColor=#666666;" parent="1" vertex="1">
          <mxGeometry x="1400" y="420" width="100" height="100" as="geometry" />
        </mxCell>
        <mxCell id="ro7r4kzSWEUVGJ4_JKQd-6" value="" style="curved=1;endArrow=classic;html=1;rounded=0;exitX=0.5;exitY=0;exitDx=0;exitDy=0;entryX=1;entryY=0.5;entryDx=0;entryDy=0;" parent="1" source="ro7r4kzSWEUVGJ4_JKQd-4" target="ro7r4kzSWEUVGJ4_JKQd-2" edge="1">
          <mxGeometry width="50" height="50" relative="1" as="geometry">
            <mxPoint x="1790" y="430" as="sourcePoint" />
            <mxPoint x="1840" y="380" as="targetPoint" />
            <Array as="points">
              <mxPoint x="1720" y="260" />
            </Array>
          </mxGeometry>
        </mxCell>
        <mxCell id="ro7r4kzSWEUVGJ4_JKQd-7" value="&lt;font style=&quot;font-size: 15px;&quot;&gt;Denied&lt;br&gt;&lt;b&gt;[Fail]&lt;/b&gt;&lt;br&gt;&lt;/font&gt;" style="edgeLabel;html=1;align=center;verticalAlign=middle;resizable=0;points=[];" parent="ro7r4kzSWEUVGJ4_JKQd-6" vertex="1" connectable="0">
          <mxGeometry x="0.0533" y="5" relative="1" as="geometry">
            <mxPoint x="-35" y="10" as="offset" />
          </mxGeometry>
        </mxCell>
        <mxCell id="ro7r4kzSWEUVGJ4_JKQd-8" value="" style="curved=1;endArrow=classic;html=1;rounded=0;exitX=1;exitY=0.5;exitDx=0;exitDy=0;entryX=0;entryY=0.5;entryDx=0;entryDy=0;" parent="1" source="ro7r4kzSWEUVGJ4_JKQd-4" target="ro7r4kzSWEUVGJ4_JKQd-3" edge="1">
          <mxGeometry width="50" height="50" relative="1" as="geometry">
            <mxPoint x="1790" y="430" as="sourcePoint" />
            <mxPoint x="1840" y="380" as="targetPoint" />
            <Array as="points">
              <mxPoint x="1870" y="430" />
            </Array>
          </mxGeometry>
        </mxCell>
        <mxCell id="ro7r4kzSWEUVGJ4_JKQd-9" value="&lt;span style=&quot;font-size: 15px;&quot;&gt;&amp;nbsp;Authorized&lt;br&gt;&lt;b&gt;[Pass]&lt;/b&gt;&lt;br&gt;&lt;/span&gt;" style="edgeLabel;html=1;align=center;verticalAlign=middle;resizable=0;points=[];" parent="ro7r4kzSWEUVGJ4_JKQd-8" vertex="1" connectable="0">
          <mxGeometry x="0.0082" y="2" relative="1" as="geometry">
            <mxPoint y="5" as="offset" />
          </mxGeometry>
        </mxCell>
        <mxCell id="ro7r4kzSWEUVGJ4_JKQd-10" value="" style="curved=1;endArrow=classic;html=1;rounded=0;exitX=1;exitY=0.5;exitDx=0;exitDy=0;entryX=0;entryY=0.5;entryDx=0;entryDy=0;" parent="1" source="ro7r4kzSWEUVGJ4_JKQd-5" target="ro7r4kzSWEUVGJ4_JKQd-4" edge="1">
          <mxGeometry width="50" height="50" relative="1" as="geometry">
            <mxPoint x="1390" y="434.5" as="sourcePoint" />
            <mxPoint x="1525.0000000000002" y="434.5" as="targetPoint" />
            <Array as="points" />
          </mxGeometry>
        </mxCell>
        <mxCell id="ro7r4kzSWEUVGJ4_JKQd-11" value="&lt;span style=&quot;font-size: 15px;&quot;&gt;bDetected&lt;br&gt;&lt;b&gt;&amp;nbsp;[Verify]&amp;nbsp;&lt;/b&gt;&lt;br&gt;&lt;/span&gt;" style="edgeLabel;html=1;align=center;verticalAlign=middle;resizable=0;points=[];" parent="ro7r4kzSWEUVGJ4_JKQd-10" vertex="1" connectable="0">
          <mxGeometry x="0.0082" y="2" relative="1" as="geometry">
            <mxPoint as="offset" />
          </mxGeometry>
        </mxCell>
        <mxCell id="ro7r4kzSWEUVGJ4_JKQd-12" value="" style="curved=1;endArrow=classic;html=1;rounded=0;exitX=0;exitY=0.5;exitDx=0;exitDy=0;entryX=0.408;entryY=0.031;entryDx=0;entryDy=0;entryPerimeter=0;" parent="1" source="ro7r4kzSWEUVGJ4_JKQd-2" target="ro7r4kzSWEUVGJ4_JKQd-5" edge="1">
          <mxGeometry width="50" height="50" relative="1" as="geometry">
            <mxPoint x="1535" y="334" as="sourcePoint" />
            <mxPoint x="1320" y="180" as="targetPoint" />
            <Array as="points">
              <mxPoint x="1400" y="300" />
            </Array>
          </mxGeometry>
        </mxCell>
        <mxCell id="ro7r4kzSWEUVGJ4_JKQd-13" value="&lt;font style=&quot;font-size: 15px;&quot;&gt;bFinished&lt;br&gt;&lt;b style=&quot;border-color: var(--border-color);&quot;&gt;[Stop]&lt;/b&gt;&lt;br&gt;&lt;/font&gt;" style="edgeLabel;html=1;align=center;verticalAlign=middle;resizable=0;points=[];" parent="ro7r4kzSWEUVGJ4_JKQd-12" vertex="1" connectable="0">
          <mxGeometry x="0.0533" y="5" relative="1" as="geometry">
            <mxPoint x="16" y="12" as="offset" />
          </mxGeometry>
        </mxCell>
        <mxCell id="ro7r4kzSWEUVGJ4_JKQd-14" value="" style="curved=1;endArrow=classic;html=1;rounded=0;exitX=0;exitY=1;exitDx=0;exitDy=0;entryX=1;entryY=1;entryDx=0;entryDy=0;" parent="1" source="ro7r4kzSWEUVGJ4_JKQd-3" target="ro7r4kzSWEUVGJ4_JKQd-5" edge="1">
          <mxGeometry width="50" height="50" relative="1" as="geometry">
            <mxPoint x="1890" y="480" as="sourcePoint" />
            <mxPoint x="1790" y="640" as="targetPoint" />
            <Array as="points">
              <mxPoint x="1950" y="540" />
              <mxPoint x="1770" y="590" />
              <mxPoint x="1540" y="570" />
            </Array>
          </mxGeometry>
        </mxCell>
        <mxCell id="ro7r4kzSWEUVGJ4_JKQd-15" value="&lt;font style=&quot;font-size: 15px;&quot;&gt;&amp;nbsp;Unlocked&amp;nbsp;&lt;br&gt;&lt;b&gt;[Stop]&lt;/b&gt;&lt;br&gt;&lt;/font&gt;" style="edgeLabel;html=1;align=center;verticalAlign=middle;resizable=0;points=[];" parent="ro7r4kzSWEUVGJ4_JKQd-14" vertex="1" connectable="0">
          <mxGeometry x="0.0533" y="5" relative="1" as="geometry">
            <mxPoint x="5" y="-11" as="offset" />
          </mxGeometry>
        </mxCell>
        <mxCell id="ro7r4kzSWEUVGJ4_JKQd-18" value="" style="curved=1;endArrow=classic;html=1;rounded=0;exitX=0.5;exitY=1;exitDx=0;exitDy=0;entryX=0;entryY=0;entryDx=0;entryDy=0;" parent="1" source="ro7r4kzSWEUVGJ4_JKQd-2" target="ro7r4kzSWEUVGJ4_JKQd-4" edge="1">
          <mxGeometry width="50" height="50" relative="1" as="geometry">
            <mxPoint x="1573.5" y="310" as="sourcePoint" />
            <mxPoint x="1768.5" y="310" as="targetPoint" />
            <Array as="points">
              <mxPoint x="1540" y="370" />
            </Array>
          </mxGeometry>
        </mxCell>
        <mxCell id="ro7r4kzSWEUVGJ4_JKQd-19" value="&lt;span style=&quot;font-size: 15px;&quot;&gt;bDetected&lt;br&gt;&lt;b&gt;[Verify]&lt;/b&gt;&lt;br&gt;&lt;/span&gt;" style="edgeLabel;html=1;align=center;verticalAlign=middle;resizable=0;points=[];" parent="ro7r4kzSWEUVGJ4_JKQd-18" vertex="1" connectable="0">
          <mxGeometry x="0.0082" y="2" relative="1" as="geometry">
            <mxPoint x="14" y="-8" as="offset" />
          </mxGeometry>
        </mxCell>
        <mxCell id="ro7r4kzSWEUVGJ4_JKQd-22" value="&lt;span style=&quot;font-size: 14px;&quot;&gt;&lt;b&gt;Modifying&lt;/b&gt;&lt;/span&gt;" style="ellipse;whiteSpace=wrap;html=1;aspect=fixed;strokeWidth=4;fillColor=#fff2cc;strokeColor=#666666;" parent="1" vertex="1">
          <mxGeometry x="2080" y="720" width="100" height="100" as="geometry" />
        </mxCell>
        <mxCell id="ro7r4kzSWEUVGJ4_JKQd-23" value="" style="curved=1;endArrow=classic;html=1;rounded=0;exitX=1;exitY=0.5;exitDx=0;exitDy=0;entryX=0;entryY=0.5;entryDx=0;entryDy=0;" parent="1" source="ro7r4kzSWEUVGJ4_JKQd-36" target="ro7r4kzSWEUVGJ4_JKQd-22" edge="1">
          <mxGeometry width="50" height="50" relative="1" as="geometry">
            <mxPoint x="2316.5" y="810" as="sourcePoint" />
            <mxPoint x="2432.5" y="891" as="targetPoint" />
            <Array as="points">
              <mxPoint x="1950" y="760" />
            </Array>
          </mxGeometry>
        </mxCell>
        <mxCell id="ro7r4kzSWEUVGJ4_JKQd-24" value="&lt;font style=&quot;font-size: 15px;&quot;&gt;Detect&lt;br&gt;&lt;b&gt;&amp;nbsp;[Write]/[Update]&amp;nbsp;&lt;/b&gt;&lt;br&gt;&lt;/font&gt;" style="edgeLabel;html=1;align=center;verticalAlign=middle;resizable=0;points=[];" parent="ro7r4kzSWEUVGJ4_JKQd-23" vertex="1" connectable="0">
          <mxGeometry x="0.0533" y="5" relative="1" as="geometry">
            <mxPoint x="-8" y="5" as="offset" />
          </mxGeometry>
        </mxCell>
        <mxCell id="ro7r4kzSWEUVGJ4_JKQd-25" value="" style="curved=1;endArrow=classic;html=1;rounded=0;exitX=0.5;exitY=1;exitDx=0;exitDy=0;entryX=0.963;entryY=0.729;entryDx=0;entryDy=0;entryPerimeter=0;" parent="1" source="ro7r4kzSWEUVGJ4_JKQd-22" target="ro7r4kzSWEUVGJ4_JKQd-33" edge="1">
          <mxGeometry width="50" height="50" relative="1" as="geometry">
            <mxPoint x="2100" y="990" as="sourcePoint" />
            <mxPoint x="1520" y="780" as="targetPoint" />
            <Array as="points">
              <mxPoint x="1800" y="900" />
            </Array>
          </mxGeometry>
        </mxCell>
        <mxCell id="ro7r4kzSWEUVGJ4_JKQd-26" value="&lt;span style=&quot;font-size: 15px;&quot;&gt;ISR Receive&amp;nbsp;&lt;br&gt;&lt;b&gt;[Receive]&lt;/b&gt;&lt;br&gt;&lt;/span&gt;" style="edgeLabel;html=1;align=center;verticalAlign=middle;resizable=0;points=[];" parent="ro7r4kzSWEUVGJ4_JKQd-25" vertex="1" connectable="0">
          <mxGeometry x="0.0082" y="2" relative="1" as="geometry">
            <mxPoint x="50" y="-47" as="offset" />
          </mxGeometry>
        </mxCell>
        <mxCell id="ro7r4kzSWEUVGJ4_JKQd-27" value="" style="curved=1;endArrow=classic;html=1;rounded=0;entryX=0;entryY=0;entryDx=0;entryDy=0;" parent="1" source="atUizrfXErrDLRUlG1eM-1" target="ro7r4kzSWEUVGJ4_JKQd-33" edge="1">
          <mxGeometry width="50" height="50" relative="1" as="geometry">
            <mxPoint x="1450" y="520" as="sourcePoint" />
            <mxPoint x="1641" y="753" as="targetPoint" />
            <Array as="points">
              <mxPoint x="1380" y="670" />
            </Array>
          </mxGeometry>
        </mxCell>
        <mxCell id="ro7r4kzSWEUVGJ4_JKQd-28" value="&lt;font style=&quot;font-size: 15px;&quot;&gt;&lt;span style=&quot;border-color: var(--border-color);&quot;&gt;ISR Receive&lt;br&gt;&lt;/span&gt;&lt;b style=&quot;border-color: var(--border-color);&quot;&gt;[Receive]&lt;/b&gt;&lt;br&gt;&lt;/font&gt;" style="edgeLabel;html=1;align=center;verticalAlign=middle;resizable=0;points=[];" parent="ro7r4kzSWEUVGJ4_JKQd-27" vertex="1" connectable="0">
          <mxGeometry x="0.0533" y="5" relative="1" as="geometry">
            <mxPoint x="-15" y="14" as="offset" />
          </mxGeometry>
        </mxCell>
        <mxCell id="ro7r4kzSWEUVGJ4_JKQd-29" value="" style="curved=1;endArrow=classic;html=1;rounded=0;exitX=0.051;exitY=0.251;exitDx=0;exitDy=0;entryX=0;entryY=1;entryDx=0;entryDy=0;exitPerimeter=0;" parent="1" source="ro7r4kzSWEUVGJ4_JKQd-5" edge="1">
          <mxGeometry width="50" height="50" relative="1" as="geometry">
            <mxPoint x="1385" y="450" as="sourcePoint" />
            <mxPoint x="1400" y="475" as="targetPoint" />
            <Array as="points">
              <mxPoint x="1260" y="400" />
              <mxPoint x="1250" y="550" />
            </Array>
          </mxGeometry>
        </mxCell>
        <mxCell id="ro7r4kzSWEUVGJ4_JKQd-30" value="&lt;font style=&quot;font-size: 15px;&quot;&gt;bFinished&lt;br&gt;&lt;b style=&quot;border-color: var(--border-color);&quot;&gt;[Polling]&lt;/b&gt;&lt;br&gt;&lt;/font&gt;" style="edgeLabel;html=1;align=center;verticalAlign=middle;resizable=0;points=[];" parent="ro7r4kzSWEUVGJ4_JKQd-29" vertex="1" connectable="0">
          <mxGeometry x="0.0533" y="5" relative="1" as="geometry">
            <mxPoint x="-4" y="-29" as="offset" />
          </mxGeometry>
        </mxCell>
        <mxCell id="ro7r4kzSWEUVGJ4_JKQd-31" value="" style="curved=1;endArrow=classic;html=1;rounded=0;exitX=-0.02;exitY=0.57;exitDx=0;exitDy=0;entryX=0;entryY=1;entryDx=0;entryDy=0;exitPerimeter=0;" parent="1" source="ro7r4kzSWEUVGJ4_JKQd-33" target="atUizrfXErrDLRUlG1eM-1" edge="1">
          <mxGeometry width="50" height="50" relative="1" as="geometry">
            <mxPoint x="1380.1446609406726" y="719.9953390593274" as="sourcePoint" />
            <mxPoint x="1400" y="731.4399999999999" as="targetPoint" />
            <Array as="points">
              <mxPoint x="1220" y="790" />
            </Array>
          </mxGeometry>
        </mxCell>
        <mxCell id="ro7r4kzSWEUVGJ4_JKQd-32" value="&lt;font style=&quot;font-size: 15px;&quot;&gt;&amp;nbsp;GUI Request&amp;nbsp;&lt;br&gt;&lt;b&gt;&amp;nbsp;ACK&amp;nbsp;&lt;/b&gt;&lt;br&gt;&lt;/font&gt;" style="edgeLabel;html=1;align=center;verticalAlign=middle;resizable=0;points=[];" parent="ro7r4kzSWEUVGJ4_JKQd-31" vertex="1" connectable="0">
          <mxGeometry x="0.0533" y="5" relative="1" as="geometry">
            <mxPoint x="6" y="-20" as="offset" />
          </mxGeometry>
        </mxCell>
        <mxCell id="ro7r4kzSWEUVGJ4_JKQd-33" value="&lt;span style=&quot;font-size: 14px;&quot;&gt;&lt;b&gt;Parsing&lt;/b&gt;&lt;/span&gt;" style="ellipse;whiteSpace=wrap;html=1;aspect=fixed;strokeWidth=4;fillColor=#fff2cc;strokeColor=#666666;" parent="1" vertex="1">
          <mxGeometry x="1430" y="710" width="100" height="100" as="geometry" />
        </mxCell>
        <mxCell id="ro7r4kzSWEUVGJ4_JKQd-35" value="&lt;span style=&quot;font-size: 14px;&quot;&gt;&lt;b&gt;Removing/&lt;br&gt;Synchorizing&lt;br&gt;&lt;/b&gt;&lt;/span&gt;" style="ellipse;whiteSpace=wrap;html=1;aspect=fixed;strokeWidth=4;fillColor=#fff2cc;strokeColor=#666666;" parent="1" vertex="1">
          <mxGeometry x="1320" y="900" width="100" height="100" as="geometry" />
        </mxCell>
        <mxCell id="ro7r4kzSWEUVGJ4_JKQd-36" value="&lt;b style=&quot;border-color: var(--border-color); font-size: 14px;&quot;&gt;Adding/&lt;br&gt;Updating&lt;br&gt;&lt;/b&gt;" style="ellipse;whiteSpace=wrap;html=1;aspect=fixed;strokeWidth=4;fillColor=#fff2cc;strokeColor=#666666;" parent="1" vertex="1">
          <mxGeometry x="1750" y="710" width="100" height="100" as="geometry" />
        </mxCell>
        <mxCell id="ro7r4kzSWEUVGJ4_JKQd-37" value="" style="curved=1;endArrow=classic;html=1;rounded=0;exitX=1;exitY=0.5;exitDx=0;exitDy=0;entryX=0.053;entryY=0.75;entryDx=0;entryDy=0;entryPerimeter=0;" parent="1" source="ro7r4kzSWEUVGJ4_JKQd-33" target="ro7r4kzSWEUVGJ4_JKQd-36" edge="1">
          <mxGeometry width="50" height="50" relative="1" as="geometry">
            <mxPoint x="1530" y="770" as="sourcePoint" />
            <mxPoint x="1717" y="680" as="targetPoint" />
            <Array as="points">
              <mxPoint x="1610" y="780" />
            </Array>
          </mxGeometry>
        </mxCell>
        <mxCell id="ro7r4kzSWEUVGJ4_JKQd-38" value="&lt;font style=&quot;font-size: 15px;&quot;&gt;Add/Update Event&lt;br&gt;&lt;b&gt;&amp;nbsp;[Polling]&amp;nbsp;&lt;/b&gt;&lt;br&gt;&lt;/font&gt;" style="edgeLabel;html=1;align=center;verticalAlign=middle;resizable=0;points=[];" parent="ro7r4kzSWEUVGJ4_JKQd-37" vertex="1" connectable="0">
          <mxGeometry x="0.0533" y="5" relative="1" as="geometry">
            <mxPoint x="4" y="12" as="offset" />
          </mxGeometry>
        </mxCell>
        <mxCell id="ro7r4kzSWEUVGJ4_JKQd-39" value="" style="curved=1;endArrow=classic;html=1;rounded=0;entryX=0;entryY=1;entryDx=0;entryDy=0;exitX=0.236;exitY=0.029;exitDx=0;exitDy=0;exitPerimeter=0;" parent="1" source="ro7r4kzSWEUVGJ4_JKQd-35" target="ro7r4kzSWEUVGJ4_JKQd-33" edge="1">
          <mxGeometry width="50" height="50" relative="1" as="geometry">
            <mxPoint x="1625.6399999999999" y="840" as="sourcePoint" />
            <mxPoint x="1459.9953390593273" y="909.6446609406726" as="targetPoint" />
            <Array as="points">
              <mxPoint x="1360" y="810" />
            </Array>
          </mxGeometry>
        </mxCell>
        <mxCell id="ro7r4kzSWEUVGJ4_JKQd-40" value="&lt;span style=&quot;font-size: 15px;&quot;&gt;ISR Receive&amp;nbsp;&lt;br&gt;&lt;b&gt;[Receive]&lt;/b&gt;&lt;br&gt;&lt;/span&gt;" style="edgeLabel;html=1;align=center;verticalAlign=middle;resizable=0;points=[];" parent="ro7r4kzSWEUVGJ4_JKQd-39" vertex="1" connectable="0">
          <mxGeometry x="0.0082" y="2" relative="1" as="geometry">
            <mxPoint x="25" y="7" as="offset" />
          </mxGeometry>
        </mxCell>
        <mxCell id="ro7r4kzSWEUVGJ4_JKQd-41" value="" style="curved=1;endArrow=classic;html=1;rounded=0;exitX=0.703;exitY=0.955;exitDx=0;exitDy=0;entryX=0.985;entryY=0.309;entryDx=0;entryDy=0;exitPerimeter=0;entryPerimeter=0;" parent="1" source="ro7r4kzSWEUVGJ4_JKQd-33" target="ro7r4kzSWEUVGJ4_JKQd-35" edge="1">
          <mxGeometry width="50" height="50" relative="1" as="geometry">
            <mxPoint x="1521.9953390593273" y="935.3553390593274" as="sourcePoint" />
            <mxPoint x="1753.6399999999999" y="940" as="targetPoint" />
            <Array as="points">
              <mxPoint x="1530" y="890" />
            </Array>
          </mxGeometry>
        </mxCell>
        <mxCell id="ro7r4kzSWEUVGJ4_JKQd-42" value="&lt;font style=&quot;font-size: 15px;&quot;&gt;Remove/Sync Event&lt;br&gt;&lt;b&gt;&amp;nbsp;[Remove]/[Sync]&amp;nbsp;&lt;/b&gt;&lt;br&gt;&lt;/font&gt;" style="edgeLabel;html=1;align=center;verticalAlign=middle;resizable=0;points=[];" parent="ro7r4kzSWEUVGJ4_JKQd-41" vertex="1" connectable="0">
          <mxGeometry x="0.0533" y="5" relative="1" as="geometry">
            <mxPoint x="-3" y="-32" as="offset" />
          </mxGeometry>
        </mxCell>
        <mxCell id="atUizrfXErrDLRUlG1eM-1" value="&lt;span style=&quot;font-size: 14px;&quot;&gt;&lt;b&gt;Managing&lt;/b&gt;&lt;/span&gt;" style="ellipse;whiteSpace=wrap;html=1;aspect=fixed;strokeWidth=4;fillColor=#fff2cc;strokeColor=#666666;" parent="1" vertex="1">
          <mxGeometry x="1220" y="600" width="100" height="100" as="geometry" />
        </mxCell>
        <mxCell id="atUizrfXErrDLRUlG1eM-2" value="" style="curved=1;endArrow=classic;html=1;rounded=0;exitX=1;exitY=0;exitDx=0;exitDy=0;entryX=0.6;entryY=1.03;entryDx=0;entryDy=0;entryPerimeter=0;" parent="1" source="ro7r4kzSWEUVGJ4_JKQd-33" target="ro7r4kzSWEUVGJ4_JKQd-5" edge="1">
          <mxGeometry width="50" height="50" relative="1" as="geometry">
            <mxPoint x="1455" y="735" as="sourcePoint" />
            <mxPoint x="1280" y="710" as="targetPoint" />
            <Array as="points">
              <mxPoint x="1540" y="650" />
            </Array>
          </mxGeometry>
        </mxCell>
        <mxCell id="atUizrfXErrDLRUlG1eM-3" value="&lt;font style=&quot;font-size: 15px;&quot;&gt;GUI finished&lt;br&gt;&lt;/font&gt;" style="edgeLabel;html=1;align=center;verticalAlign=middle;resizable=0;points=[];" parent="atUizrfXErrDLRUlG1eM-2" vertex="1" connectable="0">
          <mxGeometry x="0.0533" y="5" relative="1" as="geometry">
            <mxPoint x="6" y="22" as="offset" />
          </mxGeometry>
        </mxCell>
        <mxCell id="atUizrfXErrDLRUlG1eM-4" value="" style="curved=1;endArrow=classic;html=1;rounded=0;entryX=0.5;entryY=0;entryDx=0;entryDy=0;exitX=0.35;exitY=1;exitDx=0;exitDy=0;exitPerimeter=0;" parent="1" source="ro7r4kzSWEUVGJ4_JKQd-5" target="ro7r4kzSWEUVGJ4_JKQd-33" edge="1">
          <mxGeometry width="50" height="50" relative="1" as="geometry">
            <mxPoint x="1329" y="651" as="sourcePoint" />
            <mxPoint x="1490" y="720" as="targetPoint" />
            <Array as="points">
              <mxPoint x="1435" y="630" />
            </Array>
          </mxGeometry>
        </mxCell>
        <mxCell id="atUizrfXErrDLRUlG1eM-5" value="&lt;font style=&quot;font-size: 15px;&quot;&gt;&lt;span style=&quot;border-color: var(--border-color);&quot;&gt;ISR Receive&lt;br&gt;&lt;/span&gt;&lt;b style=&quot;border-color: var(--border-color);&quot;&gt;[Receive]&lt;/b&gt;&lt;br&gt;&lt;/font&gt;" style="edgeLabel;html=1;align=center;verticalAlign=middle;resizable=0;points=[];" parent="atUizrfXErrDLRUlG1eM-4" vertex="1" connectable="0">
          <mxGeometry x="0.0533" y="5" relative="1" as="geometry">
            <mxPoint x="-10" y="4" as="offset" />
          </mxGeometry>
        </mxCell>
        <mxCell id="oxma-z_TLaOVV012BuKe-1" value="" style="curved=1;endArrow=classic;html=1;rounded=0;entryX=0.5;entryY=0;entryDx=0;entryDy=0;exitX=1;exitY=0;exitDx=0;exitDy=0;" parent="1" source="ro7r4kzSWEUVGJ4_JKQd-36" target="ro7r4kzSWEUVGJ4_JKQd-36" edge="1">
          <mxGeometry width="50" height="50" relative="1" as="geometry">
            <mxPoint x="1830" y="720" as="sourcePoint" />
            <mxPoint x="2050" y="650" as="targetPoint" />
            <Array as="points">
              <mxPoint x="1980" y="650" />
              <mxPoint x="1870" y="570" />
            </Array>
          </mxGeometry>
        </mxCell>
        <mxCell id="oxma-z_TLaOVV012BuKe-2" value="&lt;font style=&quot;font-size: 15px;&quot;&gt;Add/Update Event&lt;br&gt;&lt;b style=&quot;border-color: var(--border-color);&quot;&gt;[Polling]&lt;/b&gt;&lt;br&gt;&lt;/font&gt;" style="edgeLabel;html=1;align=center;verticalAlign=middle;resizable=0;points=[];" parent="oxma-z_TLaOVV012BuKe-1" vertex="1" connectable="0">
          <mxGeometry x="0.0533" y="5" relative="1" as="geometry">
            <mxPoint x="26" y="24" as="offset" />
          </mxGeometry>
        </mxCell>
        <mxCell id="oxma-z_TLaOVV012BuKe-3" value="" style="curved=1;endArrow=classic;html=1;rounded=0;exitX=0;exitY=0;exitDx=0;exitDy=0;entryX=0.9;entryY=0.24;entryDx=0;entryDy=0;entryPerimeter=0;" parent="1" source="ro7r4kzSWEUVGJ4_JKQd-36" target="atUizrfXErrDLRUlG1eM-1" edge="1">
          <mxGeometry width="50" height="50" relative="1" as="geometry">
            <mxPoint x="1745" y="685" as="sourcePoint" />
            <mxPoint x="1740" y="715" as="targetPoint" />
            <Array as="points">
              <mxPoint x="1650" y="570" />
            </Array>
          </mxGeometry>
        </mxCell>
        <mxCell id="oxma-z_TLaOVV012BuKe-4" value="&lt;font style=&quot;font-size: 15px;&quot;&gt;&lt;span style=&quot;border-color: var(--border-color);&quot;&gt;Add/Update Timeout&lt;br&gt;&lt;/span&gt;&lt;b style=&quot;border-color: var(--border-color);&quot;&gt;[NACK]&lt;/b&gt;&lt;br&gt;&lt;/font&gt;" style="edgeLabel;html=1;align=center;verticalAlign=middle;resizable=0;points=[];" parent="oxma-z_TLaOVV012BuKe-3" vertex="1" connectable="0">
          <mxGeometry x="0.0533" y="5" relative="1" as="geometry">
            <mxPoint x="117" y="65" as="offset" />
          </mxGeometry>
        </mxCell>
      </root>
    </mxGraphModel>
  </diagram>
</mxfile>
